<svg width="572" height="572" viewBox="0 0 572 572" fill="none" xmlns="http://www.w3.org/2000/svg">
<rect width="572" height="572" rx="20" fill="#266DF0"/>
<g clip-path="url(#clip0_1_12)">
<path d="M264.667 392.667V476.848C264.667 506.032 245.125 532.272 216.709 538.928C207.954 540.974 198.992 542.004 190 542C165.093 542.08 140.815 534.179 120.724 519.456C100.634 504.733 85.7883 483.962 78.3627 460.187C63.5477 450.567 51.3663 437.404 42.9216 421.889C34.4769 406.374 30.0357 388.998 30 371.333C30 352.432 35.0133 334.277 44.6347 318C35.0471 301.863 29.9912 283.437 30 264.667C30 231.216 46.0427 199.813 72.6667 179.781V179.333C72.693 160.038 79.2465 141.319 91.2615 126.221C103.276 111.123 120.046 100.534 138.843 96.176C143.204 77.3811 153.794 60.6137 168.891 48.5994C183.989 36.5851 202.706 30.0301 222 30L222.469 30C233.673 30.0339 244.405 34.5081 252.315 42.442C260.225 50.3758 264.667 61.1221 264.667 72.3253V200.667H216.091C208.709 187.973 195.099 179.333 179.333 179.333C168.017 179.333 157.165 183.829 149.163 191.83C141.162 199.832 136.667 210.684 136.667 222C136.667 233.316 141.162 244.168 149.163 252.17C157.165 260.171 168.017 264.667 179.333 264.667C195.077 264.667 208.688 256.027 216.091 243.333H264.667V350H216.091C208.709 337.307 195.099 328.667 179.333 328.667C168.017 328.667 157.165 333.162 149.163 341.163C141.162 349.165 136.667 360.017 136.667 371.333C136.667 382.649 141.162 393.502 149.163 401.503C157.165 409.505 168.017 414 179.333 414C195.077 414 208.688 405.36 216.091 392.667H264.667ZM542 264.667C542 231.216 525.957 199.813 499.333 179.781V179.333C499.307 160.038 492.754 141.319 480.739 126.221C468.724 111.123 451.954 100.534 433.157 96.176C428.796 77.3811 418.206 60.6137 403.109 48.5994C388.011 36.5851 369.294 30.0301 350 30L349.531 30C338.328 30.0339 327.595 34.5081 319.685 42.442C311.775 50.3758 307.333 61.1221 307.333 72.3253V286H371.333V258.757C358.64 251.376 350 237.765 350 222C350 210.684 354.495 199.832 362.497 191.83C370.498 183.829 381.351 179.333 392.667 179.333C403.983 179.333 414.835 183.829 422.837 191.83C430.838 199.832 435.333 210.684 435.333 222C435.333 237.744 426.693 251.355 414 258.757V328.667H307.333V476.848C307.333 506.032 326.875 532.272 355.291 538.928C363.867 540.933 372.805 542 382 542C406.907 542.08 431.185 534.179 451.276 519.456C471.366 504.733 486.212 483.962 493.637 460.187C508.452 450.567 520.634 437.404 529.078 421.889C537.523 406.374 541.964 388.998 542 371.333C542.019 352.561 536.963 334.133 527.365 318C536.953 301.863 542.009 283.437 542 264.667Z" fill="white"/>
</g>
<defs>
<clipPath id="clip0_1_12">
<rect width="512" height="512" fill="white" transform="translate(30 30)"/>
</clipPath>
</defs>
</svg>
