<svg xmlns="http://www.w3.org/2000/svg" version="1.1" xmlns:xlink="http://www.w3.org/1999/xlink" width="512" height="512" x="0" y="0" viewBox="0 0 24 24" style="enable-background:new 0 0 512 512" xml:space="preserve" class=""><g><path d="M11 17v3.946c0 1.368-.916 2.598-2.248 2.91A5.492 5.492 0 0 1 7.5 24a5.464 5.464 0 0 1-5.233-3.835A4.978 4.978 0 0 1 0 16c0-.886.235-1.737.686-2.5A4.89 4.89 0 0 1 0 11c0-1.568.752-3.04 2-3.979V7a4.007 4.007 0 0 1 3.102-3.898A4.008 4.008 0 0 1 9 0h.022A1.984 1.984 0 0 1 11 1.984V8H8.723C8.377 7.405 7.739 7 7 7a2 2 0 1 0 0 4c.738 0 1.376-.405 1.723-1H11v5H8.723c-.346-.595-.984-1-1.723-1a2 2 0 1 0 0 4c.738 0 1.376-.405 1.723-1H11Zm13-6c0-1.568-.752-3.04-2-3.979V7a4.007 4.007 0 0 0-3.102-3.898A4.008 4.008 0 0 0 15 0h-.022A1.984 1.984 0 0 0 13 1.984V12h3v-1.277c-.595-.346-1-.984-1-1.723a2 2 0 1 1 4 0c0 .738-.405 1.376-1 1.723V14h-5v6.946c0 1.368.916 2.598 2.248 2.91.402.094.821.144 1.252.144a5.464 5.464 0 0 0 5.233-3.835A4.978 4.978 0 0 0 24 16a4.88 4.88 0 0 0-.686-2.5A4.89 4.89 0 0 0 24 11Z" fill="#266DF0" opacity="1" data-original="#000000" class=""></path></g></svg>